<svg width="80" height="69" viewBox="0 0 80 69" fill="none" xmlns="http://www.w3.org/2000/svg">
<g clip-path="url(#clip0_164_4154)">
<path d="M22.821 56.4421L19.6183 57.4053L13.3983 57.4409L40.0036 11.4551L47.405 24.2464L53.89 13.1841L46.4458 0.310547L33.5546 0.317733L0.506836 57.4409L6.94897 68.5786H26.0388L26.4924 62.8186L22.821 56.4421Z" fill="#EF305E"/>
<path d="M64.6837 31.8406L58.3418 43.1531L66.609 57.441H47.5264L53.9685 68.5786H73.044L79.4933 57.441L64.6837 31.8406Z" fill="#EF305E"/>
<path d="M66.6092 57.4409H62.542L73.0441 68.5786L66.6092 57.4409Z" fill="#810000"/>
<path d="M40.0038 11.4552L33.5547 0.317749L37.7598 15.3341L40.0038 11.4552Z" fill="#810000"/>
<path d="M61.4878 6.96143L46.2952 33.5657L40.0035 22.9213L19.6182 57.4053L26.0387 68.5786L40.0035 44.4389L46.4491 55.5765L67.9368 18.1063L61.4878 6.96143Z" fill="url(#paint0_linear_164_4154)"/>
</g>
<defs>
<linearGradient id="paint0_linear_164_4154" x1="66.5376" y1="1.74498" x2="31.7705" y2="57.8959" gradientUnits="userSpaceOnUse">
<stop offset="0.13167" stop-color="white"/>
<stop offset="1" stop-color="#EF305E"/>
</linearGradient>
<clipPath id="clip0_164_4154">
<rect width="80" height="69" fill="white"/>
</clipPath>
</defs>
</svg>
