<svg width="51" height="24" viewBox="0 0 51 24" fill="none" xmlns="http://www.w3.org/2000/svg">
<rect width="51" height="24" rx="4" fill="#322001"/>
<path d="M16.088 7.66L12.956 16H11.372L8.228 7.66H9.692L12.164 14.596L14.648 7.66H16.088ZM17.928 8.512C17.68 8.512 17.472 8.428 17.304 8.26C17.136 8.092 17.052 7.884 17.052 7.636C17.052 7.388 17.136 7.18 17.304 7.012C17.472 6.844 17.68 6.76 17.928 6.76C18.168 6.76 18.372 6.844 18.54 7.012C18.708 7.18 18.792 7.388 18.792 7.636C18.792 7.884 18.708 8.092 18.54 8.26C18.372 8.428 18.168 8.512 17.928 8.512ZM18.6 9.388V16H17.232V9.388H18.6ZM23.7321 9.28C24.2521 9.28 24.7161 9.388 25.1241 9.604C25.5401 9.82 25.8641 10.14 26.0961 10.564C26.3281 10.988 26.4441 11.5 26.4441 12.1V16H25.0881V12.304C25.0881 11.712 24.9401 11.26 24.6441 10.948C24.3481 10.628 23.9441 10.468 23.4321 10.468C22.9201 10.468 22.5121 10.628 22.2081 10.948C21.9121 11.26 21.7641 11.712 21.7641 12.304V16H20.3961V9.388H21.7641V10.144C21.9881 9.872 22.2721 9.66 22.6161 9.508C22.9681 9.356 23.3401 9.28 23.7321 9.28ZM34.1411 9.388L30.0851 19.108H28.6691L30.0131 15.892L27.4091 9.388H28.9331L30.7931 14.428L32.7251 9.388H34.1411ZM34.7174 12.664C34.7174 12 34.8534 11.412 35.1254 10.9C35.4054 10.388 35.7814 9.992 36.2534 9.712C36.7334 9.424 37.2614 9.28 37.8374 9.28C38.3574 9.28 38.8094 9.384 39.1934 9.592C39.5854 9.792 39.8974 10.044 40.1294 10.348V9.388H41.5094V16H40.1294V15.016C39.8974 15.328 39.5814 15.588 39.1814 15.796C38.7814 16.004 38.3254 16.108 37.8134 16.108C37.2454 16.108 36.7254 15.964 36.2534 15.676C35.7814 15.38 35.4054 14.972 35.1254 14.452C34.8534 13.924 34.7174 13.328 34.7174 12.664ZM40.1294 12.688C40.1294 12.232 40.0334 11.836 39.8414 11.5C39.6574 11.164 39.4134 10.908 39.1094 10.732C38.8054 10.556 38.4774 10.468 38.1254 10.468C37.7734 10.468 37.4454 10.556 37.1414 10.732C36.8374 10.9 36.5894 11.152 36.3974 11.488C36.2134 11.816 36.1214 12.208 36.1214 12.664C36.1214 13.12 36.2134 13.52 36.3974 13.864C36.5894 14.208 36.8374 14.472 37.1414 14.656C37.4534 14.832 37.7814 14.92 38.1254 14.92C38.4774 14.92 38.8054 14.832 39.1094 14.656C39.4134 14.48 39.6574 14.224 39.8414 13.888C40.0334 13.544 40.1294 13.144 40.1294 12.688Z" fill="#FCA004"/>
</svg>
