<svg width="20" height="16" viewBox="0 0 20 16" fill="none" xmlns="http://www.w3.org/2000/svg">
<g clip-path="url(#clip0_732_1566)">
<path d="M12.5 3C12.8978 3 13.2794 2.84196 13.5607 2.56066C13.842 2.27936 14 1.89782 14 1.5C14 1.10218 13.842 0.720644 13.5607 0.43934C13.2794 0.158035 12.8978 0 12.5 0C12.1022 0 11.7206 0.158035 11.4393 0.43934C11.158 0.720644 11 1.10218 11 1.5C11 1.89782 11.158 2.27936 11.4393 2.56066C11.7206 2.84196 12.1022 3 12.5 3ZM13.35 5L11.4187 3.475C10.8781 3.05 10.1156 3.04375 9.57187 3.46563L6.975 5.47188C6.01562 6.21563 6.08437 7.68438 7.10938 8.33438L9 9.53438V13C9 13.5531 9.44687 14 10 14C10.5531 14 11 13.5531 11 13V9C11 8.66562 10.8344 8.35312 10.5562 8.16875L9.21875 7.27812L11.1031 5.7625L12.375 6.78125C12.5531 6.92188 12.7719 7 13 7H15C15.5531 7 16 6.55312 16 6C16 5.44688 15.5531 5 15 5H13.35ZM1.75 12C1.75 11.4033 1.98705 10.831 2.40901 10.409C2.83097 9.98705 3.40326 9.75 4 9.75C4.59674 9.75 5.16903 9.98705 5.59099 10.409C6.01295 10.831 6.25 11.4033 6.25 12C6.25 12.5967 6.01295 13.169 5.59099 13.591C5.16903 14.0129 4.59674 14.25 4 14.25C3.40326 14.25 2.83097 14.0129 2.40901 13.591C1.98705 13.169 1.75 12.5967 1.75 12ZM8 12C8 10.9391 7.57857 9.92172 6.82843 9.17157C6.07828 8.42143 5.06087 8 4 8C2.93913 8 1.92172 8.42143 1.17157 9.17157C0.421427 9.92172 0 10.9391 0 12C0 13.0609 0.421427 14.0783 1.17157 14.8284C1.92172 15.5786 2.93913 16 4 16C5.06087 16 6.07828 15.5786 6.82843 14.8284C7.57857 14.0783 8 13.0609 8 12ZM13.75 12C13.75 11.4033 13.9871 10.831 14.409 10.409C14.831 9.98705 15.4033 9.75 16 9.75C16.5967 9.75 17.169 9.98705 17.591 10.409C18.0129 10.831 18.25 11.4033 18.25 12C18.25 12.5967 18.0129 13.169 17.591 13.591C17.169 14.0129 16.5967 14.25 16 14.25C15.4033 14.25 14.831 14.0129 14.409 13.591C13.9871 13.169 13.75 12.5967 13.75 12ZM20 12C20 10.9391 19.5786 9.92172 18.8284 9.17157C18.0783 8.42143 17.0609 8 16 8C14.9391 8 13.9217 8.42143 13.1716 9.17157C12.4214 9.92172 12 10.9391 12 12C12 13.0609 12.4214 14.0783 13.1716 14.8284C13.9217 15.5786 14.9391 16 16 16C17.0609 16 18.0783 15.5786 18.8284 14.8284C19.5786 14.0783 20 13.0609 20 12Z" fill="#FCA004"/>
</g>
<defs>
<clipPath id="clip0_732_1566">
<rect width="20" height="16" fill="white"/>
</clipPath>
</defs>
</svg>
